# xmcd CD database file
#
# Track frame offsets:
#	150
#	18672
#	37313
#
# Disc length: 742 seconds
#
# Revision: 5
# Processed by: cddbd v1.5.2PL0 Copyright (c) Steve Scherf et al.
# Submitted via: CDex 1.70beta2
#
DISCID=2402e403
DTITLE=℃-ute - Bye Bye Bye！
DYEAR=2009
DGENRE=Hello!Project
TTITLE0=Bye Bye Bye!
TTITLE1=Go Go Go!
TTITLE2=Bye Bye Bye! (Instrumental)
EXTD=Promotional CD YEAR: 2009
EXTT0=
EXTT1=
EXTT2=
PLAYORDER=
